<svg width="300" height="90" xmlns="http://www.w3.org/2000/svg">
 <!-- Created with Method Draw - http://github.com/duopixel/Method-Draw/ -->
 <g>
  <title>background</title>
  <rect fill="#fff" id="canvas_background" height="92" width="302" y="-1" x="-1"/>
  <g display="none" overflow="visible" y="0" x="0" height="100%" width="100%" id="canvasGrid">
   <rect fill="url(#gridpattern)" stroke-width="0" y="0" x="0" height="100%" width="100%"/>
  </g>
 </g>
 <g>
  <title>Layer 1</title>
  <path id="svg_1" d="m6.583632,39.751274c0,-11.612267 0,-23.224773 0,-34.837086c3.402847,0 6.805739,0 10.208301,0c0,23.224819 0,46.449291 0,69.674198c-3.402561,0 -6.805453,0 -10.208301,0c0,-11.612167 0,-23.224907 0,-34.837112zm15.080497,0c0,-11.612267 0,-23.224773 0,-34.837086c2.490061,-0.578259 3.797888,0.431828 3.253956,2.34447c0.036718,10.644256 0.073441,21.288415 0.110146,31.932977c6.295473,-3.593277 8.680738,-9.814667 10.631536,-15.498341c1.119793,3.701309 2.900543,8.209072 8.013054,9.415493c4.872952,1.168087 9.188499,-2.494602 9.137604,-6.246861c0.851231,-4.795151 0.968979,-9.77684 -0.33688,-14.518871c-1.222263,-3.000462 -4.885914,-5.477993 -8.960697,-5.279806c-3.353123,-1.233002 -7.114048,2.57159 -2.816513,3.964314c3.614124,3.066959 -0.586967,8.317142 -5.611393,7.087767c-4.871521,-0.833487 -6.167042,-5.963614 -3.348484,-8.863745c4.043037,-4.214339 11.496277,-4.745744 17.621807,-4.132409c7.970673,0.724385 14.032856,6.461907 14.892406,12.66525c1.097343,5.535753 -0.691353,11.790209 -6.493793,15.327566c-4.864914,3.271664 -12.015942,3.679939 -17.732578,1.681103c-1.390324,1.670807 -2.780594,3.341518 -4.170788,5.012119c1.366077,1.62999 2.73193,3.260181 4.097752,4.890049c6.922462,-2.478382 15.970673,-1.190052 20.546753,3.852043c6.445313,6.791214 5.188126,17.706532 -3.183884,23.126324c-5.258213,3.429321 -12.648891,3.441345 -18.89777,2.070274c-4.729343,-1.008057 -9.343044,-4.680878 -7.880375,-8.866974c0.737633,-3.647942 7.01899,-5.020332 10.078957,-2.305435c4.166729,3.006607 -1.872532,6.034508 -1.563061,8.932693c4.636562,2.80661 12.146564,0.16436 13.225739,-4.312416c1.715813,-4.91523 1.312958,-10.139984 0.473648,-15.137749c-0.449947,-3.359982 -4.109745,-6.747265 -8.646961,-5.810398c-4.772743,0.865559 -7.154808,4.834297 -7.972244,8.357399c-1.002354,2.579868 -1.321995,-2.466908 -2.104183,-3.292931c-1.625835,-4.140957 -4.462093,-8.20826 -8.828814,-10.818775c-0.449823,1.116333 -0.04073,2.509338 -0.184776,3.743683c-0.034649,10.118572 -0.069574,20.236977 -0.104319,30.355385c-2.4916,0.578651 -3.796579,-0.432404 -3.245844,-2.344452c0,-10.831093 0,-21.661789 0,-32.492661l0,0z" stroke-width="1.5" fill="#FABA6F"/>
  <rect id="svg_2" height="7" width="216.999999" y="77.950011" x="5.5" stroke-width="1.5" fill="#ff7f00"/>
  <text transform="matrix(1.60285, 0, 0, 2.07024, -47.9905, -61.1678)" xml:space="preserve" text-anchor="start" font-family="'Simonetta', serif" font-size="24" id="svg_3" y="56.390875" x="74.1904" stroke-opacity="null" stroke-width="0" stroke="null" fill="#ff7b00">MusicFy</text>
 </g>
</svg>