<svg width="300" height="180" xmlns="http://www.w3.org/2000/svg">
 <!-- Created with Method Draw - http://github.com/duopixel/Method-Draw/ -->

 <g>
  <title>background</title>
  <rect fill="#fff" id="canvas_background" height="182" width="302" y="-1" x="-1"/>
  <g display="none" id="canvasGrid">
   <rect fill="url(#gridpattern)" stroke-width="0" y="0" x="0" height="100%" width="100%" id="svg_1"/>
  </g>
 </g>
 <g>
  <title>Layer 1</title>
  <text style="cursor: move;" xml:space="preserve" text-anchor="start" font-family="Helvetica, Arial, sans-serif" font-size="24" id="svg_2" y="84.949997" x="56.5" stroke-width="0" fill="#FFB27C">Playing Cap'n Jazz</text>
  <path id="svg_3" d="m29.270119,109.054993c-1.669838,-0.417068 -2.93041,-2.43689 -2.512337,-4.536407c0.591316,-2.946228 2.83152,-4.984055 5.073502,-5.952469c1.493385,-0.608551 3.188057,-0.516724 4.590313,0.388275c0.12524,-11.252823 0.053722,-22.50798 0.072739,-33.761627c0.506145,-0.000427 1.155651,-0.200882 1.018124,0.698685c0.070614,2.020538 0.880123,3.870544 2.124168,5.174103c2.775272,3.172485 5.897186,6.616882 6.534729,11.452042c0.180958,2.039474 -0.012985,4.0952 -0.382336,6.087112c1.093754,2.504349 1.027855,5.538986 0.583752,8.255112c-0.288013,1.434677 -0.757732,2.816177 -1.354832,4.09584c-1.409908,0.804886 0.167088,-1.316147 0.147305,-2.080566c0.762596,-2.295486 0.850075,-4.852936 0.503204,-7.27095c-0.755558,-3.53775 -3.612179,-5.266098 -5.909378,-7.115555c-0.831158,-0.399078 -2.607872,-2.806198 -2.255566,-0.447693c-0.077003,6.393066 -0.063831,12.78743 -0.087982,19.180908c-0.964241,2.964294 -3.176319,5.22644 -5.745693,5.793594c-0.787086,0.167038 -1.611458,0.227829 -2.399712,0.039597l0,0zm16.020134,-24.172714c0.022923,-3.63858 -2.185986,-6.58226 -4.35046,-8.739838c-1.08305,-1.001724 -2.230335,-2.063004 -3.448166,-2.711609c0.074894,2.092224 0.855244,4.130936 1.789299,5.868256c1.760197,2.8936 4.417652,4.829193 5.892159,8.015076c0.176838,-0.790939 0.123516,-1.62114 0.117168,-2.431885z" stroke-width="1.5" fill="#FFB27C"/>
  <text xml:space="preserve" text-anchor="start" font-family="Helvetica, Arial, sans-serif" font-size="24" id="svg_4" y="118.950012" x="54.5" fill-opacity="null" stroke-opacity="null" stroke-width="0" stroke="null" fill="#FFB27C">By Little League</text>
 </g>
</svg>