<svg width="300" height="180" xmlns="http://www.w3.org/2000/svg">
 <!-- Created with Method Draw - http://github.com/duopixel/Method-Draw/ -->
 <g>
  <title>background</title>
  <rect fill="#fff" id="canvas_background" height="182" width="302" y="-1" x="-1"/>
  <g display="none" overflow="visible" y="0" x="0" height="100%" width="100%" id="canvasGrid">
   <rect fill="url(#gridpattern)" stroke-width="0" y="0" x="0" height="100%" width="100%"/>
  </g>
 </g>
 <g>
  <title>Layer 1</title>
  <path id="svg_1" d="m16.673742,47.876961c0,-10.285622 0,-20.571066 0,-30.856512c2.874598,0 5.749134,0 8.623837,0c0,20.57089 0,41.14205 0,61.712988c-2.874702,0 -5.749239,0 -8.623837,0c0,-10.285561 0,-20.570938 0,-30.856476zm12.73959,0c0,-10.285622 0,-20.571066 0,-30.856512c2.103537,-0.51244 3.208353,0.382671 2.748774,2.076681c0.03117,9.427973 0.062103,18.856014 0.093288,28.283966c5.318161,-3.182625 7.333214,-8.693153 8.981144,-13.727322c0.945946,3.278416 2.450233,7.27103 6.769264,8.339481c4.11657,1.034809 7.76231,-2.209221 7.719326,-5.532887c0.718983,-4.247269 0.8186,-8.659597 -0.284473,-12.860096c-1.032654,-2.657362 -4.127869,-4.851954 -7.569901,-4.676363c-2.832748,-1.092272 -6.009911,2.277769 -2.379364,3.511238c3.053146,2.716433 -0.495941,7.366856 -4.740494,6.278044c-4.115269,-0.738474 -5.209736,-5.282167 -2.828602,-7.851055c3.415565,-3.732664 9.711857,-4.203381 14.88652,-3.66013c6.733299,0.641508 11.854782,5.723562 12.58075,11.218025c0.926964,4.903233 -0.584053,10.443005 -5.48576,13.576027c-4.109753,2.89798 -10.15094,3.259769 -14.98016,1.489307c-1.174374,1.479809 -2.348846,2.959545 -3.523319,4.439346c1.153896,1.44368 2.307758,2.887524 3.461594,4.331276c5.847878,-2.195065 13.491669,-1.05394 17.357544,3.411926c5.444912,6.015179 4.382854,15.68325 -2.689716,20.48365c-4.442055,3.037666 -10.685436,3.048218 -15.964493,1.833809c-3.99506,-0.892799 -7.892807,-4.146088 -6.657288,-7.853691c0.623386,-3.23114 5.929619,-4.446602 8.514725,-2.041939c3.520042,2.663109 -1.581993,5.345062 -1.320404,7.911858c3.91674,2.485977 10.260918,0.145477 11.172737,-3.819847c1.449558,-4.353424 1.109032,-8.98122 0.400173,-13.407825c-0.380123,-2.976074 -3.471909,-5.976517 -7.304893,-5.146324c-4.031685,0.766609 -6.044228,4.2817 -6.734741,7.402199c-0.846676,2.285328 -1.116722,-2.184933 -1.777435,-2.916744c-1.373528,-3.667759 -3.769669,-7.270077 -7.458469,-9.582588c-0.380108,0.988968 -0.034447,2.222782 -0.155994,3.316074c-0.029507,8.962231 -0.058949,17.924526 -0.088421,26.88689c-2.104721,0.512642 -3.207249,-0.382935 -2.741817,-2.076706c0,-9.593216 0,-19.18652 0,-28.77977l-0.000093,0z" stroke-width="1.5" stroke="#000" fill="#FFB27C"/>
  <text transform="matrix(1.35726, 0, 0, 1.66247, -5.9455, -84.2828)" xml:space="preserve" text-anchor="start" font-family="'Simonetta', serif" font-size="24" id="svg_6" y="125.92742" x="17.001789" stroke-width="0" stroke="#000" fill="#FFB27C">And play it!</text>
  <text transform="matrix(1.14337, 0, 0, 1.73914, -10.6813, -42.3982)" xml:space="preserve" text-anchor="start" font-family="'Simonetta', serif" font-size="24" id="svg_8" y="61.149974" x="72.750789" stroke-opacity="null" stroke-width="0" stroke="#000" fill="#FABA6F">Select song or video</text>
 </g>
</svg>