<svg width="300" height="180" xmlns="http://www.w3.org/2000/svg">
 <!-- Created with Method Draw - http://github.com/duopixel/Method-Draw/ -->

 <g>
  <title>background</title>
  <rect fill="#fff" id="canvas_background" height="182" width="302" y="-1" x="-1"/>
  <g display="none" id="canvasGrid">
   <rect fill="url(#gridpattern)" stroke-width="0" y="0" x="0" height="100%" width="100%" id="svg_1"/>
  </g>
 </g>
 <g>
  <title>Layer 1</title>
  <text style="cursor: move;" xml:space="preserve" text-anchor="start" font-family="Helvetica, Arial, sans-serif" font-size="24" id="svg_2" y="69.949997" x="59.5" stroke-width="0" fill="#FFB27C">Playing Snowing</text>
  <path id="svg_3" d="m32.270119,96.054993c-1.669838,-0.417076 -2.930408,-2.43689 -2.512339,-4.5364c0.59132,-2.946236 2.831522,-4.984062 5.0735,-5.952477c1.493389,-0.608543 3.188061,-0.516724 4.590321,0.388275c0.12524,-11.252823 0.053719,-22.50798 0.072739,-33.761631c0.506142,-0.00042 1.155651,-0.200882 1.01812,0.698689c0.07061,2.020542 0.880119,3.870541 2.124172,5.174103c2.775269,3.172489 5.897179,6.616875 6.534729,11.452042c0.18095,2.039474 -0.012989,4.0952 -0.382339,6.08712c1.09375,2.504333 1.027859,5.538979 0.583748,8.255104c-0.28801,1.434669 -0.757729,2.81617 -1.354828,4.09584c-1.409912,0.804878 0.167091,-1.316147 0.147308,-2.080566c0.762592,-2.295479 0.850071,-4.852928 0.503201,-7.27095c-0.755558,-3.53775 -3.612179,-5.266098 -5.909378,-7.115555c-0.831161,-0.399078 -2.607872,-2.806198 -2.255562,-0.447693c-0.077011,6.393066 -0.063839,12.78743 -0.08799,19.180908c-0.964241,2.964294 -3.176319,5.22644 -5.745689,5.793602c-0.78709,0.167023 -1.611458,0.227829 -2.399712,0.039589l0,0zm16.02013,-24.172714c0.02293,-3.63858 -2.185978,-6.58226 -4.35046,-8.739838c-1.08305,-1.00172 -2.230328,-2.063 -3.448158,-2.711613c0.07489,2.092232 0.85524,4.130939 1.789299,5.868259c1.760189,2.8936 4.417652,4.829193 5.892151,8.015076c0.176838,-0.790947 0.12352,-1.62114 0.117168,-2.431885z" stroke-width="1.5" fill="#FFB27C"/>
  <text xml:space="preserve" text-anchor="start" font-family="Helvetica, Arial, sans-serif" font-size="24" id="svg_5" y="103.950012" x="58.5" stroke-width="0" stroke="#000" fill="#FFB27C">By Kirk Cameron</text>
 </g>
</svg>